<svg width="1440" height="335" viewBox="0 0 1440 335" fill="none" xmlns="http://www.w3.org/2000/svg">
<path fill-rule="evenodd" clip-rule="evenodd" d="M1440 291.587L1392 303.717C1344 315.847 1248 340.108 1152 334.043C1056 327.978 960 291.587 864 230.936C768 170.286 672 85.3747 576 85.3747C480 85.3747 384 170.286 288 218.806C192 267.327 96.0001 279.457 48.0001 285.522L0.00012207 291.587V0.463684H48.0001C96.0001 0.463684 192 0.463684 288 0.463684C384 0.463684 480 0.463684 576 0.463684C672 0.463684 768 0.463684 864 0.463684C960 0.463684 1056 0.463684 1152 0.463684C1248 0.463684 1344 0.463684 1392 0.463684H1440V291.587Z" fill="url(#paint0_linear_43_3)"/>
<defs>
<linearGradient id="paint0_linear_43_3" x1="1440" y1="-363.382" x2="1084.5" y2="583.713" gradientUnits="userSpaceOnUse">
<stop stop-color="#F89E24"/>
<stop offset="1" stop-color="#DE2BA1"/>
</linearGradient>
</defs>
</svg>
